<svg height="532.804" width="423.876" xmlns="http://www.w3.org/2000/svg" xmlns:xlink="http://www.w3.org/1999/xlink"><defs><path id="a" d="m312.081 529.483h-5.797l-1.035-5.474-2.65 5.474h-15.376c-1.513 0-2.85-.984-3.3-2.428s.091-3.013 1.336-3.873l12.279-8.48v-5.534l12.915.771z"/></defs><path d="m86.391 504.161a3.61 3.61 0 0 1 -3.499-2.216c-.585-1.401-.234-3.017.881-4.047l.248-.984q-.049-.118-.098-.236a9.7 9.7 0 0 0 -8.971-5.92c-3.91.015-7.429 2.375-8.927 5.987-2.927 7.051-6.654 14.113-7.572 21.568a28.7 28.7 0 0 0 .504 9.872 115.08 115.08 0 0 1 -10.469-47.799 111.08 111.08 0 0 1 .689-12.392q.571-5.06 1.584-10.047a116.42 116.42 0 0 1 23.087-49.342c5.561-3.034 10.058-7.7 12.886-13.369 1.024-2.038 1.748-4.213 2.149-6.458-.627.082-1.265.134-1.892.175l-.597.031-.074.003a3.58 3.58 0 0 1 -2.94-5.832q.406-.5.813-.999l1.244-1.532a1.78 1.78 0 0 0 .134-.154l1.419-1.748a10.35 10.35 0 0 0 -3.394-3.28c-4.741-2.777-11.281-.854-14.706 3.435-3.435 4.288-4.083 10.304-2.89 15.662a41.5 41.5 0 0 0 5.738 12.793l-.782.977a117.17 117.17 0 0 0 -12.23 19.375 48.71 48.71 0 0 0 -2.908-22.624c-2.783-6.715-8.001-12.37-12.595-18.175-5.519-6.973-16.835-3.93-17.807 4.909q-.014.128-.028.257 1.024.577 2.004 1.226a4.9 4.9 0 0 1 -1.976 8.919l-.1.015a48.83 48.83 0 0 0 1.285 7.291 50.21 50.21 0 0 0 25 31.468l1.193.607c-3.45 9.777-5.614 19.961-6.438 30.296a113.47 113.47 0 0 0 .082 18.315l-.031-.216c-1.316-6.775-4.931-12.889-10.232-17.308-7.874-6.469-18.999-8.851-27.494-14.05-1.843-1.184-4.206-1.189-6.055-.015s-2.848 3.316-2.56 5.487q.017.114.035.227c1.266.516 2.499 1.11 3.692 1.779q1.024.578 2.004 1.226a4.9 4.9 0 0 1 -1.976 8.919l-.1.015-.206.031a48.81 48.81 0 0 0 8.978 14.058 50.25 50.25 0 0 0 36.446 15.991h.01a119.52 119.52 0 0 0 8.032 23.447h28.692c.103-.319.195-.648.288-.967a32.6 32.6 0 0 1 -7.939-.473l6.386-7.857a1.78 1.78 0 0 0 .134-.154l3.25-4 .001-.002a47.75 47.75 0 0 0 -1.399-12.164zm251.095 0a3.61 3.61 0 0 0 3.499-2.216c.585-1.401.234-3.017-.881-4.047l-.248-.984q.049-.118.098-.236a9.7 9.7 0 0 1 8.971-5.92c3.91.015 7.429 2.375 8.927 5.987 2.927 7.051 6.654 14.113 7.572 21.568a28.7 28.7 0 0 1 -.504 9.872 115.08 115.08 0 0 0 10.469-47.799 111.08 111.08 0 0 0 -.689-12.392q-.571-5.06-1.584-10.047a116.42 116.42 0 0 0 -23.087-49.342c-5.561-3.034-10.058-7.7-12.886-13.369-1.024-2.038-1.748-4.213-2.149-6.458.627.082 1.265.134 1.892.175l.597.031.074.003a3.58 3.58 0 0 0 2.94-5.832q-.406-.5-.813-.999l-1.244-1.532a1.78 1.78 0 0 1 -.134-.154l-1.419-1.748a10.35 10.35 0 0 1 3.394-3.28c4.741-2.777 11.281-.854 14.706 3.435 3.435 4.288 4.083 10.304 2.89 15.662a41.5 41.5 0 0 1 -5.738 12.793l.782.977a117.17 117.17 0 0 1 12.23 19.375 48.71 48.71 0 0 1 2.908-22.624c2.783-6.715 8.001-12.37 12.595-18.175 5.519-6.973 16.835-3.93 17.807 4.909q.014.128.028.257-1.024.577-2.004 1.226a4.9 4.9 0 0 0 1.976 8.919l.1.015a48.83 48.83 0 0 1 -1.285 7.291 50.21 50.21 0 0 1 -25 31.468l-1.193.607c3.45 9.777 5.614 19.961 6.438 30.296a113.47 113.47 0 0 1 -.082 18.315l.031-.216c1.316-6.775 4.931-12.889 10.232-17.308 7.874-6.469 18.999-8.851 27.494-14.05 1.843-1.184 4.206-1.189 6.055-.015s2.848 3.316 2.56 5.487q-.017.114-.035.227c-1.266.516-2.499 1.11-3.692 1.779q-1.024.578-2.004 1.226a4.9 4.9 0 0 0 1.976 8.919l.1.015.206.031a48.81 48.81 0 0 1 -8.978 14.058 50.25 50.25 0 0 1 -36.446 15.991h-.01a119.52 119.52 0 0 1 -8.032 23.447h-28.692c-.103-.319-.195-.648-.288-.967a32.6 32.6 0 0 0 7.939-.473l-6.386-7.857a1.78 1.78 0 0 1 -.134-.154l-3.25-4-.001-.002a47.75 47.75 0 0 1 1.399-12.164z" fill="#f2f2f2"/><path d="m95.525 514.522 8.388 3.574 17.779-30.651-12.38-5.275zm69.314 7.938 9.117-.001 4.338-35.168-13.457.001z" fill="#a0616a"/><path d="m164.518 531.971 28.037-.001v-.355c0-6.027-4.886-10.912-10.913-10.913h-.001l-5.121-3.885-9.555 3.886h-2.447zm-74.093-11.36 25.793 10.992.139-.326c2.363-5.544-.216-11.954-5.761-14.318h-.001l-3.188-5.582-10.314-.172-2.252-.96zm83.357-206.286 13.857 84.375-3.771 12.573 4.948 8.905-7.267 78.204 2.95 6.494-8.242 5.083h-16.771l-.89-70.799-4.143-10.395v-5.729l-8.433-43.171-.9 53.613-2.692 5.193-24.119 63.138h-18.804l1.454-11.204c-3.369-1.706 5.059-6.691 5.868-10.38l-2.769-6.23 2.769-11.768 6.378-32.729-6.517-38.806 2.334-24.978-1.215-8.544.092-2.763s3.214-1.24.145-4.336c-4.25-24.091.978-29.319.978-29.319l20.924-12.246z" fill="#2f2e41"/><g fill="#a0616a"><circle cx="140.038" cy="184.204" r="19.004"/><path d="m116.212 147.749a7.48 7.48 0 0 1 -8.159 8.058l-11.042 24.173-7.328-11.706 11.609-21.161a7.52 7.52 0 0 1 14.92.635z"/></g><path d="m175.028 316.141c.08.578-.128 1.159-.556 1.556s-1.024.559-1.594.434c-9.95-2.15-51.01 3.01-64.61 16.87-.527.543-1.338.698-2.028.386s-1.111-1.022-1.052-1.776c.24-2.98 4.57-16.46 4.57-16.46l1.32-8.4c.03-.196.03-.394 0-.59l-1.21-6.95a1.82 1.82 0 0 0 -.5-.96l-.41-.41a1.8 1.8 0 0 1 0-2.54l1.59-1.58a1.84 1.84 0 0 0 .51-1.51l-2.11-15.6c-.01-.03-.01-.07-.02-.1l-9.32-49.22a1.8 1.8 0 0 1 .99-1.95l15.84-7.57c.165-.076.316-.178.45-.3l11.06-10.26c.329-.299.755-.469 1.2-.48l19.88-.15a1.81 1.81 0 0 1 1.43.7l6.05 7.87c.215.278.507.487.84.6l4.1 1.39 11.84 4.02.55.19c.696.241 1.173.884 1.2 1.62a.86.86 0 0 1 .01.16l-2.96 61.26a1.94 1.94 0 0 0 .14.79l1.42 3.31c.29.687.127 1.482-.41 2-.42.4-.9.86-1.2 1.2-.61.67.69 5.98.89 6.75.018.066.031.132.04.2l.73 5.49c.086.657-.199 1.308-.74 1.69a1.79 1.79 0 0 0 -.32 2.62l1.6 1.89a1.91 1.91 0 0 1 .41.93z" fill="#ff7663"/><path d="m135.176 202.278q-.122-.268-.243-.538l.093.006z" fill="#2f2e41"/><path d="m202.841 309.89a7.48 7.48 0 0 0 -8.138-8.079l-10.98-24.202-7.358 11.687 11.555 21.191a7.52 7.52 0 0 0 14.921-.597z" fill="#a0616a"/><path d="m187.958 284.481-.61 1.14-6.43 12.02-.9 1.68-6.28-8.65-20.61-28.38 2.93-17.8 5.39-22.3 7.99-.46 5.6 2.29a11.5 11.5 0 0 1 6.64 12.723l-4.96 25.397z" fill="#ff7663"/><path d="m156.583 167.104c-.284-1.579-.92-3.073-1.86-4.373a5.23 5.23 0 0 0 -7.791-.237c.297-.864.384-1.786.252-2.69a14.57 14.57 0 0 1 -4.399 1.308l3.372-3.521-16.787 1.542c-1.733.159-3.606.385-4.878 1.701s-1.343 4.125.265 4.859c-3.169-1.193-6.807.539-8.898 3.441s-2.86 6.73-3.002 10.443c-.183 4.815.714 9.942 3.654 13.487 1.922 2.318 4.543 3.764 6.67 5.849l.064.063a18.91 18.91 0 0 0 18.303 5.099l1.085-.314c1.809.818 4.062-.3 5.204-2.12 1.218-1.94 1.458-4.422 1.51-6.786.067-3.092-.123-6.184-.57-9.245-.503-3.446-.957-7.86 1.772-9.591 2.125-1.348 4.765-.018 6.905 1.302a35.53 35.53 0 0 0 -.87-10.218z" fill="#2f2e41"/><path d="m116.06 255.081-12.663-.914-21.977-26.907-16.314-23.383 3.757-9.506 17.759-25.442-.184-2.198 1.965-.354.035-2.646 1.631.259 4.369-6.259 10 8-5.655 16.613-.345 3.387-1.957 3.373.957 4.627-3.74 3.549-1.801 5.289c7.768 5.109 15.135 12.752 22.317 22.317z" fill="#ff7663"/><path d="m288.635 284.344-1.373 12.73.808 16.694-36.976-4.393-3.475-25.031 4.427.043z" fill="#ffb6b6"/><path d="m256.439 242.504 8.786-5.272 4.213-6.501 13 2 15.892 10.653-.156 24.161-9.853 25.059-41.296-5.272-1.569-8.839s-11.422-15.341.879-24.128z" fill="#ff7663"/><path d="m203.705 170.761c-.843 1.797-.846 3.875-.01 5.675s2.428 3.137 4.345 3.651l28.607 53.976 11.547-8.912-31.75-50.255c.665-3.352-1.282-6.671-4.532-7.726s-6.775.487-8.206 3.59z" fill="#ffb6b6"/><path d="m250.63 252.303s-2.651 2.351-6.421-4.141c-3.018-5.197-18.069-28.469-20.201-36.537a5.27 5.27 0 0 1 -5.213-3.814l16.168-6.275c3.515 1.757 2.539 4.193 1.648 5.453l6.021 9.032 20.028 22.476-10.084 12.14z" fill="#ff7663"/><path d="m307.814 515.476h-8.084l-3.848-31.182h11.932z" fill="#ffb6b6"/><use fill="#2f2e41" xlink:href="#a"/><path d="m262.404 515.476h-8.084l-3.848-31.182h11.932z" fill="#ffb6b6"/><g fill="#2f2e41"><use x="-45.41" xlink:href="#a"/><path d="m311.302 488.586h-.088l-1.555-50.7a13.26 13.26 0 0 0 -.174-12.528l-.223-.403.577-2.675a17.04 17.04 0 0 0 -.974-10.256l-1.45-47.294c5.182-33.582-19.513-55.483-19.513-55.483h-36.993l-2.644 9.083-2.827 2.402 1.07 3.634-3.07 4.366-.471 7.801c-5.25 51.152-4.298 100.999 4.034 149.292l-.227.115a1.92 1.92 0 0 0 -.784 2.531c.385 1.115 1.36 1.791 2.178 1.508l19.537-.68a1.92 1.92 0 0 0 .784-2.531c-.385-1.115-1.36-1.791-2.178-1.508l-1.328.672 2.833-48.924-.314-8.936.648-10.138 2.995-45.601 11.335 56.076 11.578 60.741a2.13 2.13 0 0 0 1.436 3.709h15.809c1.18 0 2.136-.957 2.136-2.136s-.957-2.136-2.136-2.136z"/></g><path d="m351.815 330.107c.79-1.821.733-3.898-.156-5.673s-2.518-3.065-4.45-3.523l-30.17-53.118-11.282 9.245 33.203 49.307c-.567 3.37 1.476 6.63 4.756 7.59s6.758-.685 8.098-3.828z" fill="#ffb6b6"/><path d="m295.815 243.347s2.581-2.427 6.539 3.952c3.168 5.107 25.608 34.553 27.974 42.555a5.27 5.27 0 0 1 5.322 3.66l-15.977 6.744c-3.564-1.654-5.225-4.748-4.371-6.033l-6.282-8.852-23.554-27.192 8.452-13.112z" fill="#ff7663"/><path d="m415.221 531.251a1.55 1.55 0 0 1 -1.553 1.553h-412.051c-.858 0-1.553-.695-1.553-1.553s.695-1.553 1.553-1.553h412.05a1.55 1.55 0 0 1 1.553 1.553z" fill="#ccc"/><path d="m263.12 195.668c-5.379 10.602-1.865 22.883 8.117 29.341 10.794 6.983 24.808 5.454 29.341-8.117 5.048-15.113.901-21.596-8.117-29.341-10.568-9.077-23.529-3.339-29.341 8.117z" fill="#2f2e41"/><path d="m289.599 219.286c-5.702 7.47-16.378 8.909-23.855 3.216s-8.929-16.367-3.245-23.851l.148-.194c5.804-7.265 16.363-8.532 23.72-2.845s8.794 16.223 3.227 23.671z" fill="#ffb6b6"/><g fill="#2f2e41"><path d="m257.907 193.951a23.27 23.27 0 0 0 9.823 5.566c.738-.854 1.613-1.579 2.589-2.145-.467.972-.787 2.008-.95 3.074 1.642 3.408 8.349 5.857 14.758 8.362l8.49-14.983-11.237-6.367c-9.03-6.243-19.659-3.578-23.473 6.493zm41.114-6.381a5.23 5.23 0 0 1 4.948.723 11.03 11.03 0 0 1 3.23 3.929 28.17 28.17 0 0 1 2.929 7.982c.485 2.417.403 5.338-1.766 6.6-1.809 1.052-4.396.39-6.059-1.015a13.46 13.46 0 0 1 -3.411-5.306 18.75 18.75 0 0 0 -3.021-5.526l1.498.699a13.09 13.09 0 0 1 -.652-4.46 4.32 4.32 0 0 1 2.304-3.626z"/><path d="m279.585 189.534 12.056 6.831a14.13 14.13 0 0 1 5.327 19.256c-5.576 9.838-17.718 13.823-28.039 9.202l11.016-9.725-14.945 7.614-3.191-1.808c16.028-2.914 19.119-15.487 17.776-31.371z"/></g><path d="m163.162 0-39.662 66.033 39.797 23.496z" fill="#8c8c8c"/><path d="m202.998 66.033-39.836-66.033.135 89.529z" fill="#333"/><path d="m123.5 66.033 39.749-18.117.048 41.613z" fill="#383838"/><path d="m202.998 66.033-39.749-18.117.086 40.092z" fill="#141414"/><path d="m202.901 73.595-39.701 23.496v32.409z" fill="#333"/><path d="m123.498 73.595 39.702 23.496v32.409z" fill="#8c8c8c"/></svg>